<mxfile host="app.diagrams.net" modified="2021-07-14T13:38:57.444Z" agent="5.0 (Macintosh; Intel Mac OS X 10_14_6) AppleWebKit/537.36 (KHTML, like Gecko) Chrome/91.0.4472.114 Safari/537.36" etag="FjDRebeQnzTixNpf5zOm" version="14.8.6" type="github">
  <diagram id="wMsbm8-88SX9Iofy6eRz" name="Page-1">
    <mxGraphModel dx="925" dy="605" grid="1" gridSize="10" guides="1" tooltips="1" connect="1" arrows="1" fold="1" page="1" pageScale="1" pageWidth="827" pageHeight="1169" math="0" shadow="0">
      <root>
        <mxCell id="0" />
        <mxCell id="1" parent="0" />
        <mxCell id="diZWMuCWypZWr5fR8un2-49" value="" style="rounded=0;whiteSpace=wrap;html=1;" vertex="1" parent="1">
          <mxGeometry x="370" y="420" width="440" height="140" as="geometry" />
        </mxCell>
        <mxCell id="diZWMuCWypZWr5fR8un2-19" style="edgeStyle=orthogonalEdgeStyle;rounded=0;orthogonalLoop=1;jettySize=auto;html=1;exitX=0.5;exitY=1;exitDx=0;exitDy=0;entryX=0.5;entryY=0;entryDx=0;entryDy=0;" edge="1" parent="1" source="diZWMuCWypZWr5fR8un2-1" target="diZWMuCWypZWr5fR8un2-12">
          <mxGeometry relative="1" as="geometry">
            <Array as="points" />
          </mxGeometry>
        </mxCell>
        <mxCell id="diZWMuCWypZWr5fR8un2-20" value="client to server" style="edgeLabel;html=1;align=center;verticalAlign=middle;resizable=0;points=[];" vertex="1" connectable="0" parent="diZWMuCWypZWr5fR8un2-19">
          <mxGeometry x="-0.5824" y="1" relative="1" as="geometry">
            <mxPoint x="-1" y="16" as="offset" />
          </mxGeometry>
        </mxCell>
        <mxCell id="diZWMuCWypZWr5fR8un2-22" style="edgeStyle=orthogonalEdgeStyle;rounded=0;orthogonalLoop=1;jettySize=auto;html=1;entryX=0.5;entryY=0;entryDx=0;entryDy=0;" edge="1" parent="1" source="diZWMuCWypZWr5fR8un2-1" target="diZWMuCWypZWr5fR8un2-2">
          <mxGeometry relative="1" as="geometry">
            <Array as="points">
              <mxPoint x="420" y="120" />
              <mxPoint x="620" y="120" />
            </Array>
          </mxGeometry>
        </mxCell>
        <mxCell id="diZWMuCWypZWr5fR8un2-26" style="edgeStyle=orthogonalEdgeStyle;rounded=0;orthogonalLoop=1;jettySize=auto;html=1;exitX=0;exitY=0.5;exitDx=0;exitDy=0;entryX=0;entryY=0.5;entryDx=0;entryDy=0;" edge="1" parent="1" source="diZWMuCWypZWr5fR8un2-1" target="diZWMuCWypZWr5fR8un2-25">
          <mxGeometry relative="1" as="geometry">
            <Array as="points">
              <mxPoint x="120" y="80" />
              <mxPoint x="120" y="490" />
            </Array>
          </mxGeometry>
        </mxCell>
        <mxCell id="diZWMuCWypZWr5fR8un2-27" value="cannot use require" style="edgeLabel;html=1;align=center;verticalAlign=middle;resizable=0;points=[];" vertex="1" connectable="0" parent="diZWMuCWypZWr5fR8un2-26">
          <mxGeometry x="0.12" y="1" relative="1" as="geometry">
            <mxPoint y="26" as="offset" />
          </mxGeometry>
        </mxCell>
        <mxCell id="diZWMuCWypZWr5fR8un2-1" value="Plain HTML" style="rounded=0;whiteSpace=wrap;html=1;" vertex="1" parent="1">
          <mxGeometry x="360" y="50" width="120" height="60" as="geometry" />
        </mxCell>
        <mxCell id="diZWMuCWypZWr5fR8un2-2" value="npm" style="whiteSpace=wrap;html=1;rounded=0;" vertex="1" parent="1">
          <mxGeometry x="560" y="220" width="120" height="60" as="geometry" />
        </mxCell>
        <mxCell id="diZWMuCWypZWr5fR8un2-9" value="1.can only use &amp;lt;script&amp;gt; to include file&lt;br&gt;2.cannot update file version automatically&lt;br&gt;3.hard to manage" style="text;html=1;strokeColor=none;fillColor=none;align=left;verticalAlign=middle;whiteSpace=wrap;rounded=0;" vertex="1" parent="1">
          <mxGeometry x="490" y="50" width="296" height="60" as="geometry" />
        </mxCell>
        <mxCell id="diZWMuCWypZWr5fR8un2-10" value="1.can use without browser&lt;br&gt;2.can get&amp;nbsp; file from client hardware&lt;br&gt;3.use &#39;require&#39; to include file instead of define variable" style="text;html=1;strokeColor=none;fillColor=none;align=left;verticalAlign=middle;whiteSpace=wrap;rounded=0;" vertex="1" parent="1">
          <mxGeometry x="160" y="320" width="200" height="60" as="geometry" />
        </mxCell>
        <mxCell id="diZWMuCWypZWr5fR8un2-17" value="" style="edgeStyle=orthogonalEdgeStyle;rounded=0;orthogonalLoop=1;jettySize=auto;html=1;" edge="1" parent="1" source="diZWMuCWypZWr5fR8un2-12" target="diZWMuCWypZWr5fR8un2-16">
          <mxGeometry relative="1" as="geometry" />
        </mxCell>
        <mxCell id="diZWMuCWypZWr5fR8un2-12" value="commonJS" style="whiteSpace=wrap;html=1;rounded=0;" vertex="1" parent="1">
          <mxGeometry x="360" y="220" width="120" height="60" as="geometry" />
        </mxCell>
        <mxCell id="diZWMuCWypZWr5fR8un2-21" style="edgeStyle=orthogonalEdgeStyle;rounded=0;orthogonalLoop=1;jettySize=auto;html=1;exitX=1;exitY=0.5;exitDx=0;exitDy=0;entryX=0.5;entryY=1;entryDx=0;entryDy=0;" edge="1" parent="1" source="diZWMuCWypZWr5fR8un2-16" target="diZWMuCWypZWr5fR8un2-2">
          <mxGeometry relative="1" as="geometry" />
        </mxCell>
        <mxCell id="diZWMuCWypZWr5fR8un2-23" value="manage denpendency" style="edgeLabel;html=1;align=center;verticalAlign=middle;resizable=0;points=[];" vertex="1" connectable="0" parent="diZWMuCWypZWr5fR8un2-21">
          <mxGeometry x="-0.3309" y="-4" relative="1" as="geometry">
            <mxPoint y="-4" as="offset" />
          </mxGeometry>
        </mxCell>
        <mxCell id="diZWMuCWypZWr5fR8un2-16" value="nodejs" style="whiteSpace=wrap;html=1;rounded=0;" vertex="1" parent="1">
          <mxGeometry x="360" y="320" width="120" height="60" as="geometry" />
        </mxCell>
        <mxCell id="diZWMuCWypZWr5fR8un2-24" value="manage denpendency" style="edgeLabel;html=1;align=center;verticalAlign=middle;resizable=0;points=[];" vertex="1" connectable="0" parent="1">
          <mxGeometry x="619.9965491022327" y="159.99964611049367" as="geometry" />
        </mxCell>
        <mxCell id="diZWMuCWypZWr5fR8un2-46" value="" style="edgeStyle=orthogonalEdgeStyle;rounded=0;orthogonalLoop=1;jettySize=auto;html=1;" edge="1" parent="1" source="diZWMuCWypZWr5fR8un2-25" target="diZWMuCWypZWr5fR8un2-45">
          <mxGeometry relative="1" as="geometry" />
        </mxCell>
        <mxCell id="diZWMuCWypZWr5fR8un2-25" value="webpack" style="rounded=0;whiteSpace=wrap;html=1;" vertex="1" parent="1">
          <mxGeometry x="190" y="460" width="120" height="60" as="geometry" />
        </mxCell>
        <mxCell id="diZWMuCWypZWr5fR8un2-39" style="edgeStyle=orthogonalEdgeStyle;rounded=0;orthogonalLoop=1;jettySize=auto;html=1;entryX=0.5;entryY=1;entryDx=0;entryDy=0;" edge="1" parent="1" source="diZWMuCWypZWr5fR8un2-28" target="diZWMuCWypZWr5fR8un2-33">
          <mxGeometry relative="1" as="geometry" />
        </mxCell>
        <mxCell id="diZWMuCWypZWr5fR8un2-40" style="edgeStyle=orthogonalEdgeStyle;rounded=0;orthogonalLoop=1;jettySize=auto;html=1;" edge="1" parent="1">
          <mxGeometry relative="1" as="geometry">
            <mxPoint x="250.0588235294117" y="733" as="sourcePoint" />
            <mxPoint x="340.0588235294117" y="651" as="targetPoint" />
            <Array as="points">
              <mxPoint x="250" y="693" />
              <mxPoint x="340" y="693" />
            </Array>
          </mxGeometry>
        </mxCell>
        <mxCell id="diZWMuCWypZWr5fR8un2-28" value="twebpack loader" style="rounded=0;whiteSpace=wrap;html=1;" vertex="1" parent="1">
          <mxGeometry x="190" y="730" width="120" height="50" as="geometry" />
        </mxCell>
        <mxCell id="diZWMuCWypZWr5fR8un2-29" value="brower understood syntax" style="whiteSpace=wrap;html=1;rounded=0;" vertex="1" parent="1">
          <mxGeometry x="640" y="460" width="165" height="60" as="geometry" />
        </mxCell>
        <mxCell id="diZWMuCWypZWr5fR8un2-38" style="edgeStyle=orthogonalEdgeStyle;rounded=0;orthogonalLoop=1;jettySize=auto;html=1;exitX=0.5;exitY=0;exitDx=0;exitDy=0;entryX=0.5;entryY=1;entryDx=0;entryDy=0;" edge="1" parent="1" source="diZWMuCWypZWr5fR8un2-32" target="diZWMuCWypZWr5fR8un2-28">
          <mxGeometry relative="1" as="geometry" />
        </mxCell>
        <mxCell id="diZWMuCWypZWr5fR8un2-32" value="new language features" style="rounded=0;whiteSpace=wrap;html=1;" vertex="1" parent="1">
          <mxGeometry x="190" y="810" width="120" height="50" as="geometry" />
        </mxCell>
        <mxCell id="diZWMuCWypZWr5fR8un2-41" style="edgeStyle=orthogonalEdgeStyle;rounded=0;orthogonalLoop=1;jettySize=auto;html=1;exitX=0.5;exitY=0;exitDx=0;exitDy=0;entryX=0.5;entryY=1;entryDx=0;entryDy=0;" edge="1" parent="1" source="diZWMuCWypZWr5fR8un2-33" target="diZWMuCWypZWr5fR8un2-25">
          <mxGeometry relative="1" as="geometry">
            <Array as="points">
              <mxPoint x="170" y="560" />
              <mxPoint x="250" y="560" />
            </Array>
          </mxGeometry>
        </mxCell>
        <mxCell id="diZWMuCWypZWr5fR8un2-33" value="js(babel/typescript)" style="whiteSpace=wrap;html=1;rounded=0;" vertex="1" parent="1">
          <mxGeometry x="110" y="595" width="120" height="60" as="geometry" />
        </mxCell>
        <mxCell id="diZWMuCWypZWr5fR8un2-42" style="edgeStyle=orthogonalEdgeStyle;rounded=0;orthogonalLoop=1;jettySize=auto;html=1;exitX=0.5;exitY=0;exitDx=0;exitDy=0;entryX=0.5;entryY=1;entryDx=0;entryDy=0;" edge="1" parent="1" source="diZWMuCWypZWr5fR8un2-35" target="diZWMuCWypZWr5fR8un2-25">
          <mxGeometry relative="1" as="geometry">
            <mxPoint x="250" y="530" as="targetPoint" />
            <Array as="points">
              <mxPoint x="340" y="560" />
              <mxPoint x="250" y="560" />
            </Array>
          </mxGeometry>
        </mxCell>
        <mxCell id="diZWMuCWypZWr5fR8un2-35" value="css(less/sass/stylus)" style="whiteSpace=wrap;html=1;rounded=0;" vertex="1" parent="1">
          <mxGeometry x="280" y="598" width="120" height="50" as="geometry" />
        </mxCell>
        <mxCell id="diZWMuCWypZWr5fR8un2-43" value="transpile" style="text;html=1;align=center;verticalAlign=middle;resizable=0;points=[];autosize=1;strokeColor=none;" vertex="1" parent="1">
          <mxGeometry x="540" y="470" width="60" height="20" as="geometry" />
        </mxCell>
        <mxCell id="diZWMuCWypZWr5fR8un2-47" style="edgeStyle=orthogonalEdgeStyle;rounded=0;orthogonalLoop=1;jettySize=auto;html=1;entryX=0;entryY=0.5;entryDx=0;entryDy=0;" edge="1" parent="1" source="diZWMuCWypZWr5fR8un2-45" target="diZWMuCWypZWr5fR8un2-29">
          <mxGeometry relative="1" as="geometry" />
        </mxCell>
        <mxCell id="diZWMuCWypZWr5fR8un2-45" value="webpack-cli&amp;amp;use cmd" style="rounded=0;whiteSpace=wrap;html=1;" vertex="1" parent="1">
          <mxGeometry x="380" y="460" width="130" height="60" as="geometry" />
        </mxCell>
        <mxCell id="diZWMuCWypZWr5fR8un2-48" value="bundle" style="text;html=1;align=center;verticalAlign=middle;resizable=0;points=[];autosize=1;strokeColor=none;" vertex="1" parent="1">
          <mxGeometry x="545" y="490" width="50" height="20" as="geometry" />
        </mxCell>
        <mxCell id="diZWMuCWypZWr5fR8un2-51" style="edgeStyle=orthogonalEdgeStyle;rounded=0;orthogonalLoop=1;jettySize=auto;html=1;entryX=0.458;entryY=1.032;entryDx=0;entryDy=0;entryPerimeter=0;" edge="1" parent="1" source="diZWMuCWypZWr5fR8un2-50" target="diZWMuCWypZWr5fR8un2-49">
          <mxGeometry relative="1" as="geometry" />
        </mxCell>
        <mxCell id="diZWMuCWypZWr5fR8un2-50" value="webpack server" style="rounded=0;whiteSpace=wrap;html=1;" vertex="1" parent="1">
          <mxGeometry x="511" y="670" width="120" height="40" as="geometry" />
        </mxCell>
        <mxCell id="diZWMuCWypZWr5fR8un2-52" value="1.watch&lt;br&gt;2.rebuild&lt;br&gt;3.refresh page&amp;nbsp;" style="text;html=1;align=left;verticalAlign=middle;resizable=0;points=[];autosize=1;strokeColor=none;" vertex="1" parent="1">
          <mxGeometry x="580" y="595" width="100" height="50" as="geometry" />
        </mxCell>
      </root>
    </mxGraphModel>
  </diagram>
</mxfile>
